<svg width="1330" height="488" viewBox="0 0 1330 488" fill="none" xmlns="http://www.w3.org/2000/svg">
<mask id="mask0_1_380" style="mask-type:alpha" maskUnits="userSpaceOnUse" x="0" y="0" width="1330" height="488">
<rect width="1330" height="488" fill="#FBFAFF"/>
</mask>
<g mask="url(#mask0_1_380)">
<g opacity="0.05">
<rect width="66.1188" height="38.5219" rx="19.261" transform="matrix(0.693904 -0.720067 0.694183 0.719799 52.2851 331.16)" fill="#5D3BEE"/>
<rect width="174.757" height="38.5219" rx="19.261" transform="matrix(0.693904 -0.720068 0.694182 0.719799 -80.0508 471.311)" fill="#5D3BEE"/>
<rect width="439.635" height="38.5219" rx="19.261" transform="matrix(0.693903 -0.720069 0.694181 0.7198 -125.059 611.128)" fill="#5D3BEE"/>
<rect width="163.927" height="38.5219" rx="19.261" transform="matrix(0.693903 -0.720069 0.694182 0.7198 58.7929 508.163)" fill="#5D3BEE"/>
</g>
<g opacity="0.05">
<rect width="174.757" height="38.5219" rx="19.261" transform="matrix(0.693904 -0.720068 0.694182 0.719799 1132.95 103.311)" fill="#5D3BEE"/>
<rect width="439.635" height="38.5219" rx="19.261" transform="matrix(0.693903 -0.720069 0.694181 0.7198 1087.94 243.128)" fill="#5D3BEE"/>
<rect width="163.927" height="38.5219" rx="19.261" transform="matrix(0.693903 -0.720069 0.694182 0.7198 1271.79 140.163)" fill="#5D3BEE"/>
</g>
<g opacity="0.05">
<rect width="123.065" height="71.6998" rx="35.8499" transform="matrix(0.693903 -0.720068 0.694182 0.7198 693.684 3.30957)" fill="#5D3BEE"/>
<rect width="325.271" height="71.6998" rx="35.8499" transform="matrix(0.693903 -0.720068 0.694182 0.7198 447.371 264.171)" fill="#5D3BEE"/>
<rect width="818.28" height="71.6998" rx="35.8499" transform="matrix(0.693903 -0.720068 0.694182 0.7198 363.594 524.405)" fill="#5D3BEE"/>
<rect width="305.113" height="71.6998" rx="35.8499" transform="matrix(0.693903 -0.720068 0.694182 0.7198 705.793 332.763)" fill="#5D3BEE"/>
</g>
</g>
</svg>
